<?xml version="1.0" encoding="UTF-8"?>
<svg xmlns="http://www.w3.org/2000/svg" width="800" height="450" viewBox="0 0 800 450" role="img" aria-label="Whiz Academy Full-Stack Website">
	<defs>
		<pattern id="grid-whiz" width="40" height="40" patternUnits="userSpaceOnUse">
			<path d="M 40 0 L 0 0 0 40" fill="none" stroke="#151B26" stroke-width="1"/>
		</pattern>
		<linearGradient id="bg-whiz" x1="0" y1="0" x2="800" y2="450" gradientUnits="userSpaceOnUse">
			<stop offset="0%" stop-color="#0B0E14"/>
			<stop offset="100%" stop-color="#101622"/>
		</linearGradient>
	</defs>
	<rect width="800" height="450" fill="url(#bg-whiz)"/>
	<rect width="800" height="450" fill="url(#grid-whiz)" opacity="0.55"/>

	<rect x="48" y="42" width="28" height="2" fill="#5B9BD5"/>
	<text x="84" y="50" fill="#5B9BD5" font-family="Consolas, monospace" font-size="12" letter-spacing="1">MERN STACK • WEB</text>
	<text x="752" y="50" fill="#6B7280" font-family="Consolas, monospace" font-size="12" text-anchor="end">React</text>

	<text x="48" y="118" fill="#FFFFFF" font-family="Arial, Helvetica, sans-serif" font-size="34" font-weight="700">
		<tspan x="48" dy="0">Whiz Academy</tspan>
			<tspan x="48" dy="52">Full-Stack Website</tspan>
	</text>

	<text x="48" y="228" fill="#8A8F98" font-family="Arial, Helvetica, sans-serif" font-size="15">
		<tspan x="48" dy="0">Course showcase platform with instructors, resources</tspan>
			<tspan x="48" dy="22">and fast responsive MERN stack architecture.</tspan>
	</text>

	
	<rect x="48" y="292" width="108" height="30" rx="15" fill="#12161F" stroke="#2A3344" stroke-width="1"/>
	<text x="102" y="312" fill="#C5CAD3" font-family="Consolas, monospace" font-size="11" text-anchor="middle">react</text>

	<rect x="166" y="292" width="108" height="30" rx="15" fill="#12161F" stroke="#2A3344" stroke-width="1"/>
	<text x="220" y="312" fill="#C5CAD3" font-family="Consolas, monospace" font-size="11" text-anchor="middle">nodejs</text>

	<rect x="284" y="292" width="108" height="30" rx="15" fill="#12161F" stroke="#2A3344" stroke-width="1"/>
	<text x="338" y="312" fill="#C5CAD3" font-family="Consolas, monospace" font-size="11" text-anchor="middle">mongodb</text>

	<rect x="402" y="292" width="108" height="30" rx="15" fill="#12161F" stroke="#2A3344" stroke-width="1"/>
	<text x="456" y="312" fill="#C5CAD3" font-family="Consolas, monospace" font-size="11" text-anchor="middle">courses</text>

	<rect x="520" y="292" width="108" height="30" rx="15" fill="#12161F" stroke="#2A3344" stroke-width="1"/>
	<text x="574" y="312" fill="#C5CAD3" font-family="Consolas, monospace" font-size="11" text-anchor="middle">express</text>

	<line x1="48" y1="348" x2="752" y2="348" stroke="#1E2633" stroke-width="1"/>

	<text x="48" y="396" fill="#4ADE80" font-family="Arial, Helvetica, sans-serif" font-size="34" font-weight="700">95%</text>
	<text x="48" y="420" fill="#6B7280" font-family="Arial, Helvetica, sans-serif" font-size="13">user satisfaction</text>

	<line x1="390" y1="368" x2="390" y2="428" stroke="#1E2633" stroke-width="1"/>
	<text x="430" y="396" fill="#8A8F98" font-family="Arial, Helvetica, sans-serif" font-size="13">
		<tspan x="430" dy="0">Courses • instructors • student resources</tspan>
			<tspan x="430" dy="18">Responsive design • fast load times</tspan>
	</text>
</svg>