<?xml version="1.0" encoding="UTF-8"?>
<svg xmlns="http://www.w3.org/2000/svg" width="800" height="450" viewBox="0 0 800 450" role="img" aria-label="MySQL vs PostgreSQL for Web Apps">
	<defs>
		<pattern id="grid-mysql-vs-postgresql-web-apps" width="40" height="40" patternUnits="userSpaceOnUse">
			<path d="M 40 0 L 0 0 0 40" fill="none" stroke="#151B26" stroke-width="1"/>
		</pattern>
		<linearGradient id="bg-mysql-vs-postgresql-web-apps" x1="0" y1="0" x2="800" y2="450" gradientUnits="userSpaceOnUse">
			<stop offset="0%" stop-color="#0B0E14"/>
			<stop offset="100%" stop-color="#101622"/>
		</linearGradient>
	</defs>
	<rect width="800" height="450" fill="url(#bg-mysql-vs-postgresql-web-apps)"/>
	<rect width="800" height="450" fill="url(#grid-mysql-vs-postgresql-web-apps)" opacity="0.55"/>

	<rect x="48" y="42" width="28" height="2" fill="#5B9BD5"/>
	<text x="84" y="50" fill="#5B9BD5" font-family="Consolas, monospace" font-size="12" letter-spacing="1">BLOG • DATABASES</text>
	<text x="752" y="50" fill="#6B7280" font-family="Consolas, monospace" font-size="12" text-anchor="end">May 2026</text>

	<text x="48" y="118" fill="#FFFFFF" font-family="Arial, Helvetica, sans-serif" font-size="32" font-weight="700">
		<tspan x="48" dy="0">MySQL vs PostgreSQL</tspan>
			<tspan x="48" dy="46">for Web Apps</tspan>
	</text>

	<text x="48" y="228" fill="#8A8F98" font-family="Arial, Helvetica, sans-serif" font-size="15">
		<tspan x="48" dy="0">Compare relational databases for Laravel,</tspan>
			<tspan x="48" dy="22">Node.js and production workloads in 2026.</tspan>
	</text>

	
	<rect x="48" y="292" width="108" height="30" rx="15" fill="#12161F" stroke="#2A3344" stroke-width="1"/>
	<text x="102" y="312" fill="#C5CAD3" font-family="Consolas, monospace" font-size="11" text-anchor="middle">mysql</text>

	<rect x="166" y="292" width="108" height="30" rx="15" fill="#12161F" stroke="#2A3344" stroke-width="1"/>
	<text x="220" y="312" fill="#C5CAD3" font-family="Consolas, monospace" font-size="11" text-anchor="middle">postgres</text>

	<rect x="284" y="292" width="108" height="30" rx="15" fill="#12161F" stroke="#2A3344" stroke-width="1"/>
	<text x="338" y="312" fill="#C5CAD3" font-family="Consolas, monospace" font-size="11" text-anchor="middle">jsonb</text>

	<rect x="402" y="292" width="108" height="30" rx="15" fill="#12161F" stroke="#2A3344" stroke-width="1"/>
	<text x="456" y="312" fill="#C5CAD3" font-family="Consolas, monospace" font-size="11" text-anchor="middle">index</text>

	<rect x="520" y="292" width="108" height="30" rx="15" fill="#12161F" stroke="#2A3344" stroke-width="1"/>
	<text x="574" y="312" fill="#C5CAD3" font-family="Consolas, monospace" font-size="11" text-anchor="middle">orm</text>

	<line x1="48" y1="348" x2="752" y2="348" stroke="#1E2633" stroke-width="1"/>

	<text x="48" y="396" fill="#FBBF24" font-family="Arial, Helvetica, sans-serif" font-size="34" font-weight="700">5 min</text>
	<text x="48" y="420" fill="#6B7280" font-family="Arial, Helvetica, sans-serif" font-size="13">read time</text>

	<line x1="390" y1="368" x2="390" y2="428" stroke="#1E2633" stroke-width="1"/>
	<text x="430" y="396" fill="#8A8F98" font-family="Arial, Helvetica, sans-serif" font-size="13">
		<tspan x="430" dy="0">By Umar Shoaib • Backend Engineer</tspan>
			<tspan x="430" dy="18">Schema design • query performance</tspan>
	</text>
</svg>